<svg width="85" height="85" viewBox="0 0 85 85" fill="none" xmlns="http://www.w3.org/2000/svg">
<g filter="url(#filter0_d_5_122)">
<circle cx="42.5" cy="38.5" r="38.5" fill="#FF5CCB"/>
<path d="M40.8807 31.5455H45.0909V42.804C45.0909 44.1051 44.7813 45.2386 44.1619 46.2045C43.5426 47.1648 42.679 47.9091 41.571 48.4375C40.4631 48.9602 39.1761 49.2216 37.7102 49.2216C36.2273 49.2216 34.9318 48.9602 33.8239 48.4375C32.7159 47.9091 31.8551 47.1648 31.2415 46.2045C30.6278 45.2386 30.321 44.1051 30.321 42.804V31.5455H34.5398V42.4375C34.5398 43.0398 34.6705 43.5767 34.9318 44.0483C35.1989 44.5199 35.571 44.8892 36.0483 45.1562C36.5256 45.4233 37.0795 45.5568 37.7102 45.5568C38.3409 45.5568 38.892 45.4233 39.3636 45.1562C39.8409 44.8892 40.2131 44.5199 40.4801 44.0483C40.7472 43.5767 40.8807 43.0398 40.8807 42.4375V31.5455Z" fill="white"/>
<path d="M45.1095 42.597L40.8993 42.6044L40.8793 31.3459C40.877 30.0448 41.1847 28.9107 41.8023 27.9437C42.4199 26.9824 43.2822 26.2365 44.3892 25.7062C45.4962 25.1815 46.7827 24.9178 48.2486 24.9152C49.7316 24.9126 51.0275 25.1717 52.1364 25.6924C53.2453 26.2189 54.1074 26.9617 54.7227 27.9208C55.3381 28.8856 55.6469 30.0186 55.6492 31.3197L55.6691 42.5782L51.4504 42.5857L51.4311 31.6937C51.43 31.0914 51.2984 30.5547 51.0362 30.0836C50.7683 29.6125 50.3955 29.2438 49.9178 28.9776C49.44 28.7114 48.8858 28.5789 48.2551 28.58C47.6244 28.5811 47.0735 28.7156 46.6024 28.9835C46.1256 29.2514 45.7541 29.6214 45.4879 30.0934C45.2217 30.5655 45.0891 31.1027 45.0902 31.7049L45.1095 42.597Z" fill="white"/>
<circle cx="42.5" cy="38.5" r="29.5" stroke="#62ECBD" stroke-width="6"/>
<rect x="43" y="35" width="9" height="4" fill="white"/>
<rect x="30.32" y="29" width="4.23" height="4" fill="white"/>
<rect x="51.45" y="42" width="4.23" height="4" fill="white"/>
</g>
<defs>
<filter id="filter0_d_5_122" x="0" y="0" width="85" height="85" filterUnits="userSpaceOnUse" color-interpolation-filters="sRGB">
<feFlood flood-opacity="0" result="BackgroundImageFix"/>
<feColorMatrix in="SourceAlpha" type="matrix" values="0 0 0 0 0 0 0 0 0 0 0 0 0 0 0 0 0 0 127 0" result="hardAlpha"/>
<feOffset dy="4"/>
<feGaussianBlur stdDeviation="2"/>
<feComposite in2="hardAlpha" operator="out"/>
<feColorMatrix type="matrix" values="0 0 0 0 0 0 0 0 0 0 0 0 0 0 0 0 0 0 0.25 0"/>
<feBlend mode="normal" in2="BackgroundImageFix" result="effect1_dropShadow_5_122"/>
<feBlend mode="normal" in="SourceGraphic" in2="effect1_dropShadow_5_122" result="shape"/>
</filter>
</defs>
</svg>
